<?xml version="1.0" encoding="UTF-8" standalone="no"?>
<!DOCTYPE svg PUBLIC "-//W3C//DTD SVG 1.1//EN" "http://www.w3.org/Graphics/SVG/1.1/DTD/svg11.dtd">
<svg width="100%" height="100%" viewBox="0 0 652 652" version="1.1" xmlns="http://www.w3.org/2000/svg" xmlns:xlink="http://www.w3.org/1999/xlink" xml:space="preserve" xmlns:serif="http://www.serif.com/" style="fill-rule:evenodd;clip-rule:evenodd;stroke-linejoin:round;stroke-miterlimit:2;">
    <g transform="matrix(1,0,0,1,-714.739632,-827.941236)">
        <g transform="matrix(1.283654,0,0,1.283654,-304.826923,-342.730769)">
            <path d="M1077.525,1222.635C1061.045,1233.605 1041.263,1240 1020,1240C962.601,1240 916,1193.399 916,1136C916,1078.601 962.601,1032 1020,1032C1077.399,1032 1124,1078.601 1124,1136C1124,1158.663 1116.735,1179.642 1104.41,1196.735C1104.411,1196.736 1104.412,1196.737 1104.414,1196.738L1172.325,1264.65C1179.611,1271.936 1179.611,1283.766 1172.325,1291.052C1165.04,1298.338 1153.209,1298.338 1145.923,1291.052L1078.012,1223.14C1077.846,1222.974 1077.683,1222.805 1077.525,1222.635ZM1020,1062.382C979.369,1062.382 946.382,1095.369 946.382,1136C946.382,1176.631 979.369,1209.618 1020,1209.618C1060.631,1209.618 1093.618,1176.631 1093.618,1136C1093.618,1095.369 1060.631,1062.382 1020,1062.382Z" style="fill:white;"/>
        </g>
        <path d="M1040.74,827.941C1220.664,827.941 1366.74,974.017 1366.74,1153.941C1366.74,1333.866 1220.664,1479.941 1040.74,1479.941C860.815,1479.941 714.74,1333.866 714.74,1153.941C714.74,974.017 860.815,827.941 1040.74,827.941ZM1040.74,872.941C885.652,872.941 759.74,998.853 759.74,1153.941C759.74,1309.029 885.652,1434.941 1040.74,1434.941C1195.828,1434.941 1321.74,1309.029 1321.74,1153.941C1321.74,998.853 1195.828,872.941 1040.74,872.941Z" style="fill:white;"/>
    </g>
</svg>
